<svg width="95" height="55" viewBox="0 0 95 55" fill="none" xmlns="http://www.w3.org/2000/svg">
<g clip-path="url(#clip0)">
<path d="M4.34473 33.5078C7.52969 32.2307 9.99944 33.3736 12.3395 35.023C15.6693 37.3824 18.4869 40.3349 21.4796 43.0839C25.0599 46.3741 28.6835 49.6036 33.1844 51.6318C40.0189 54.7142 46.5206 53.2445 51.4731 47.5992C54.5738 44.0644 56.7475 39.982 58.7916 35.8044C61.7777 29.6938 64.5824 23.49 68.2427 17.7366C70.5461 14.1131 72.9964 10.6064 76.3694 7.86605C77.2847 7.10746 78.2942 6.47083 79.3728 5.97204C82.8084 4.42003 85.8551 5.3876 87.7738 8.64097C89.3987 11.3857 90.0686 14.4356 90.531 17.5396C91.3024 22.7173 91.4277 27.9296 91.3629 33.1549C91.391 33.7655 91.3098 34.3762 91.123 34.958C90.6758 34.8693 90.7946 34.5251 90.7968 34.2762C90.8445 30.4228 90.68 26.5698 90.3041 22.7346C89.8266 18.2669 89.3037 13.7905 87.1191 9.74708C85.4273 6.6344 82.7566 5.79671 79.5586 7.31192C78.4554 7.84625 77.4473 8.5585 76.5746 9.42023C74.0098 11.9052 72.1537 14.8945 70.4402 17.9898C67.3352 23.6026 65.0535 29.5963 62.4454 35.4407C60.1248 40.6357 57.2185 45.4628 53.1541 49.5106C49.9346 52.6903 46.1317 54.764 41.5336 54.9805C37.9726 55.1515 34.6451 54.1817 31.5206 52.4847C28.6209 50.9089 26.0798 48.8503 23.6987 46.5949C20.8486 43.8956 18.0958 41.0925 15.2436 38.3976C13.4178 36.6659 11.5401 35.0078 9.19347 33.9342C7.27256 33.0554 5.50505 33.5294 3.71162 34.1939C3.50851 34.2697 3.37238 34.5533 3.22761 34.7567C-0.0135274 39.3197 -0.186388 44.6251 2.76089 49.4391C3.62894 50.8068 4.62447 52.0889 5.7341 53.2683C5.93721 53.4847 6.257 53.6514 6.25052 54.1796C5.17014 53.6016 4.54784 52.6838 3.87368 51.857C1.51197 48.9781 -0.0934755 45.8113 -0.000562769 41.941C0.0793854 38.6703 1.23539 35.8304 3.24058 33.3173C5.76651 30.1353 9.15674 28.6786 13.1585 28.3928C18.0418 28.0443 22.9316 28.0898 27.8192 27.9599C33.6662 27.8127 39.3944 26.9404 44.7942 24.529C48.3097 22.9597 51.4169 20.7583 54.2194 18.1435C58.2708 14.3598 62.2142 10.4506 66.3002 6.71233C69.967 3.36804 74.2 0.909068 79.1805 0.177438C83.8305 -0.506572 87.7803 0.677457 90.3646 5.55427C92.1062 8.84228 92.9208 12.4182 93.5107 16.0352C94.4641 21.8985 94.9612 27.8271 94.9973 33.7675C95.0351 35.8544 94.7835 37.9364 94.2496 39.9539C92.897 44.8783 89.7358 47.1079 85.1226 47.1858C76.6697 47.3308 68.2103 47.1057 59.7553 47.0299C59.5535 47.0045 59.3546 46.9603 59.1611 46.8979C59.5089 46.4845 59.8784 46.6013 60.1961 46.5905C68.0051 46.3741 75.814 46.4022 83.623 46.3589C85.1703 46.3825 86.7086 46.1198 88.1606 45.584C91.3564 44.3372 92.763 41.7354 93.3292 38.5491C93.8629 35.5468 93.649 32.5337 93.407 29.5184C93.1066 25.7564 92.6853 22.0116 92.0349 18.295C91.3737 14.5005 90.5504 10.7493 88.8089 7.27296C87.601 4.85944 85.894 3.1018 83.0051 2.89183C80.6844 2.72083 78.5301 3.3031 76.4061 4.15595C73.0072 5.51748 70.2458 7.83575 67.4627 10.1064C62.6809 14.0243 58.1887 18.2972 53.1239 21.8709C47.4548 25.9251 40.8245 28.4207 33.8931 29.1093C29.7776 29.4927 25.64 29.581 21.512 29.3734C17.7112 29.2154 13.8888 29.2024 10.1312 29.9665C7.8617 30.4663 5.82457 31.713 4.34473 33.5078Z" fill="#407BFE"/>
</g>
<defs>
<clipPath id="clip0">
<rect width="95" height="55" fill="white"/>
</clipPath>
</defs>
</svg>
